<svg xmlns="http://www.w3.org/2000/svg" viewBox="0 0 22.64 18.76"><defs><style>.cls-1{fill:#fb5845;}.cls-1,.cls-4,.cls-5{fill-rule:evenodd;}.cls-2{fill:#4d443c;}.cls-3{fill:#fff;}.cls-4{fill:#ffe9d7;}.cls-5{fill:#42adc6;}</style></defs><title>26_1</title><g id="Layer_2" data-name="Layer 2"><g id="Layer_1-2" data-name="Layer 1"><path class="cls-1" d="M6.8.29a6,6,0,0,0-6,6C.77,11,8.59,16.37,11.5,18.43l.06,0,.06,0C14.55,16.36,22.36,11,22.36,6.32a6,6,0,0,0-10.79-3.7A6,6,0,0,0,6.8.29"/><path class="cls-2" d="M2.34,1.85a6.31,6.31,0,0,1,9.23.32A6.31,6.31,0,0,1,22.64,6.32c0,4.7-7.49,10-10.61,12.18l-.3.21h0a.28.28,0,0,1-.33,0l-.3-.21C8,16.3.49,11,.49,6.32A6.3,6.3,0,0,1,2.34,1.85M6.8.57A5.74,5.74,0,0,0,1.06,6.32c0,4.4,7.32,9.56,10.37,11.71l.14.1.14-.1c3.05-2.15,10.37-7.31,10.37-11.71A5.74,5.74,0,0,0,11.79,2.79a.29.29,0,0,1-.4.05l-.05-.05A5.72,5.72,0,0,0,6.8.57Z"/><path class="cls-3" d="M17.32,2.92a.29.29,0,0,1,.19-.54,4.21,4.21,0,0,1,2.05,1.55,4.5,4.5,0,0,1,.81,2.49.28.28,0,0,1-.57,0,3.92,3.92,0,0,0-.71-2.17,3.64,3.64,0,0,0-1.77-1.34m-1.83-.16a.29.29,0,1,1-.09-.57l.12,0h.13a.29.29,0,0,1,.05.57H15.6Z"/><path class="cls-4" d="M3.42,15.23l0-5.83a2.48,2.48,0,0,0,.92-.49C6,7.54,6.53,5.49,6.79,3.49c1-1,1.8-.9,2.14.53a8,8,0,0,1-.49,4.4l3.08,0a3,3,0,0,1,1.55.23,1.59,1.59,0,0,1,.85,1.78,13.92,13.92,0,0,1-1.44,3.64,2.69,2.69,0,0,1-2.79,1.82l-4.11,0a1.66,1.66,0,0,1-1.52-.66Z"/><path class="cls-2" d="M3.74,9.61,3.7,15H4a.28.28,0,0,1,.22.09,1.74,1.74,0,0,0,.57.46,1.88,1.88,0,0,0,.74.11l4.11,0a2.65,2.65,0,0,0,1.53-.37,3.08,3.08,0,0,0,1-1.29l.18-.38a11.76,11.76,0,0,0,1.23-3.15,2.09,2.09,0,0,0-.11-.94,1.15,1.15,0,0,0-.58-.57,2.15,2.15,0,0,0-1.12-.2h-.3l-3.08,0-.09,0a.28.28,0,0,1-.18-.36,11.62,11.62,0,0,0,.55-2.13,5.57,5.57,0,0,0-.06-2.11,1.73,1.73,0,0,0-.38-.81h0a.48.48,0,0,0-.21-.13.51.51,0,0,0-.26,0,1.8,1.8,0,0,0-.75.48,12.8,12.8,0,0,1-.68,2.92A6.15,6.15,0,0,1,4.56,9.13a3,3,0,0,1-.48.32,2.66,2.66,0,0,1-.34.16m-.6,5.61,0-5.82a.29.29,0,0,1,.21-.27A2.09,2.09,0,0,0,3.81,9a2.38,2.38,0,0,0,.38-.26A5.59,5.59,0,0,0,5.84,6.33a12.48,12.48,0,0,0,.66-2.88.28.28,0,0,1,.08-.16h0a2.45,2.45,0,0,1,1.09-.7,1.07,1.07,0,0,1,.54,0,1,1,0,0,1,.47.28h0a2.26,2.26,0,0,1,.53,1.08,6.12,6.12,0,0,1,.07,2.32,11.36,11.36,0,0,1-.45,1.87l2.69,0h.3a2.59,2.59,0,0,1,1.38.26,1.69,1.69,0,0,1,.85.85,2.61,2.61,0,0,1,.16,1.2,11.88,11.88,0,0,1-1.28,3.37l-.18.37a3.6,3.6,0,0,1-1.2,1.52,3.18,3.18,0,0,1-1.85.46l-4.11,0a2.38,2.38,0,0,1-1-.15,2.08,2.08,0,0,1-.68-.51l-.52,0a.29.29,0,0,1-.28-.29Z"/><path class="cls-5" d="M1.06,8.86H2.81a.77.77,0,0,1,.77.77v5.28a.77.77,0,0,1-.77.77H1.06a.77.77,0,0,1-.77-.77V9.63a.77.77,0,0,1,.77-.77"/><path class="cls-2" d="M2.81,9.15H1.06a.48.48,0,0,0-.48.48v5.28a.48.48,0,0,0,.13.33h0a.48.48,0,0,0,.34.14H2.81a.48.48,0,0,0,.34-.14h0a.48.48,0,0,0,.14-.34V9.63a.48.48,0,0,0-.14-.34h0a.48.48,0,0,0-.34-.14M1.06,8.58H2.81A1.06,1.06,0,0,1,3.87,9.63v5.28a1.05,1.05,0,0,1-.31.74h0a1.05,1.05,0,0,1-.74.31H1.06a1.05,1.05,0,0,1-.75-.31l0,0A1.05,1.05,0,0,1,0,14.91V9.63A1.06,1.06,0,0,1,1.06,8.58Z"/></g></g></svg>