<?xml version="1.0" ?><!DOCTYPE svg  PUBLIC '-//W3C//DTD SVG 1.1//EN'  'http://www.w3.org/Graphics/SVG/1.1/DTD/svg11.dtd'><svg enable-background="new 0 0 128 128" id="Слой_1" version="1.1" viewBox="0 0 128 128" xml:space="preserve" xmlns="http://www.w3.org/2000/svg" xmlns:xlink="http://www.w3.org/1999/xlink"><g><g><g><g><g><g><path d="M115,112.9l-13.9-5.5H83.2l-15.5,6.1c-3.1,1.2-5.6,3.7-6.8,6.9l-0.6,1.6h43.8l3.2-1.3l3.4,1.3H124l0,0        C122.4,117.8,119.1,114.6,115,112.9z" fill="#9CD7D2"/></g></g></g></g><g><g><g><g><path d="M104.1,122c0-1.8,1.5-3.3,3.3-3.3s3.3,1.5,3.3,3.3H104.1z" fill="#FFFFFF"/></g></g></g></g><g><g><g><g><path d="M72.6,114.7l16.1-7.2h-5.5l-15.5,6.1c-3.1,1.2-5.6,3.7-6.8,6.9l-0.6,1.6H66l0,0        C67.1,118.7,69.5,116.1,72.6,114.7z" fill="#FFFFFF"/></g></g></g></g><g><g><g><g><g><path d="M101.1,101.9V112l0-2c-2.6,8.9-15.2,8.9-17.8,0l0,2l0-10.1" fill="#FFF4EA"/></g></g></g></g></g><g><g><g><g><g><path d="M92.2,118.2C92.2,118.2,92.2,118.2,92.2,118.2c-4.9,0-9-3.1-10.3-7.8c0-0.1-0.1-0.3-0.1-0.4v-8.1         c0-0.8,0.7-1.5,1.5-1.5s1.5,0.7,1.5,1.5v7.9c1.2,4,4.8,5.4,7.4,5.4c2.7,0,6.2-1.4,7.4-5.4v-7.9c0-0.8,0.7-1.5,1.5-1.5         s1.5,0.7,1.5,1.5v8.1c0,0.1,0,0.3-0.1,0.4C101.1,115.2,97.1,118.2,92.2,118.2z" fill="#AF9BAC"/></g></g></g></g></g><g><g><g><g><path d="M60.3,123.5c-0.2,0-0.4,0-0.5-0.1c-0.8-0.3-1.2-1.2-0.9-1.9l0.6-1.6c1.4-3.5,4.1-6.3,7.6-7.7l15.5-6.1        c0.8-0.3,1.6,0.1,1.9,0.8c0.3,0.8-0.1,1.6-0.8,1.9l-15.5,6.1c-2.7,1.1-4.9,3.3-6,6l-0.6,1.6C61.5,123.1,60.9,123.5,60.3,123.5        z" fill="#AF9BAC"/></g></g></g></g><g><g><g><g><path d="M124,123.5c-0.6,0-1.2-0.4-1.4-1c-1.4-3.7-4.4-6.7-8.1-8.2l-13.9-5.5c-0.8-0.3-1.1-1.2-0.8-1.9        c0.3-0.8,1.2-1.1,1.9-0.8l13.9,5.5c4.5,1.8,8.1,5.4,9.8,9.9c0.3,0.8-0.1,1.6-0.9,1.9C124.4,123.5,124.2,123.5,124,123.5z" fill="#AF9BAC"/></g></g></g></g><g><g><g><g><g><g><g><path d="M116.2,72.6c0-19.6-9.8-29.6-24.1-29.6S68.1,53,68.1,72.6c-4.6,0.3-3.6,10.8,1.7,10.2           c6.7,18.7,16,23.6,22.4,23.6s15.7-4.9,22.4-23.6C119.8,83.4,120.8,72.9,116.2,72.6z" fill="#FFF4EA"/></g></g></g></g><g><g><g><g><path d="M116.5,71.5c-0.3-18.9-10-28.6-24-28.6c0,0-0.1,0-0.1,0c0,0-0.1,0-0.1,0c-14,0-23.7,9.7-24,28.6           l1.4,6.3c0.2,0.8,0.8,1.3,1.6,1.3l0,0c2.5-2.3-1.2-11.9,3.4-15.8c11.3-9.6,19,9.2,35.6,4.6c4.5-1.2,0.9,8.9,3.4,11.2h0           c0.8,0,1.4-0.5,1.6-1.3L116.5,71.5z" fill="#F6E6B9"/></g></g></g></g><g><g><g><g><path d="M92.2,107.9c-4.4,0-15.5-2.3-23.4-23.6c-3.2-0.4-4.9-3.7-5.1-7c-0.1-2.9,1-5.1,3-5.9           c0.4-18.8,9.9-29.9,25.5-29.9s25.2,11.2,25.5,29.9c1.9,0.8,3.1,3,3,5.9c-0.1,3.3-1.9,6.6-5.1,7           C107.7,105.6,96.6,107.9,92.2,107.9z M69.8,81.3c0.6,0,1.2,0.4,1.4,1c7.3,20.4,17.1,22.6,21,22.6s13.6-2.2,21-22.6           c0.2-0.7,0.9-1.1,1.6-1c1.9,0.2,2.9-2.3,3-4.1c0-1-0.2-3-1.5-3.1c-0.8-0.1-1.4-0.7-1.4-1.5c0-17.9-8.2-28.1-22.6-28.1           S69.6,54.7,69.6,72.6c0,0.8-0.6,1.4-1.4,1.5c-1.3,0.1-1.6,2.1-1.5,3.1c0.1,1.8,1,4.3,2.9,4.1           C69.7,81.3,69.7,81.3,69.8,81.3z" fill="#AF9BAC"/></g></g></g></g><g><g><g><g><path d="M113.5,80.7c-0.4,0-0.7-0.1-1-0.4c-1.6-1.4-1.5-4.2-1.4-6.9c0-1.2,0.1-3.4-0.3-4           c-0.1,0-0.1,0-0.3,0.1c-8.6,2.4-15.1-1.2-20.3-4c-5.6-3-9.6-5.2-14.7-0.9c-2.1,1.8-2,5.5-1.9,8.8c0.1,3,0.1,5.6-1.4,7           c-0.6,0.6-1.6,0.5-2.1-0.1c-0.6-0.6-0.5-1.6,0.1-2.1c0.5-0.5,0.5-2.9,0.4-4.7c-0.1-3.7-0.2-8.4,3-11.1           c6.6-5.6,12.4-2.5,18.1,0.6c5.2,2.8,10.7,5.8,18.1,3.7c1.4-0.4,2.4,0,2.9,0.4c1.6,1.2,1.5,3.8,1.4,6.5           c0,1.5-0.1,4.1,0.5,4.6c0.6,0.6,0.7,1.5,0.1,2.1C114.3,80.5,113.9,80.7,113.5,80.7z" fill="#AF9BAC"/></g></g></g></g></g></g></g><g><g><g><g><path d="M58.7,112.9l-13.9-5.5H26.9l-15.5,6.1c-3.1,1.2-5.6,3.7-6.8,6.9L4,122h43.8l3.2-1.3l3.4,1.3h13.3l0,0        C66.1,117.8,62.8,114.6,58.7,112.9z" fill="#9CD7D2"/></g></g></g></g><g><g><g><g><path d="M47.8,122c0-1.8,1.5-3.3,3.3-3.3c1.8,0,3.3,1.5,3.3,3.3H47.8z" fill="#F8BBB4"/></g></g></g></g><g><g><g><g><path d="M16.2,114.7l16.1-7.2h-5.5l-15.5,6.1c-3.1,1.2-5.6,3.7-6.8,6.9L4,122h5.7h0        C10.7,118.7,13.1,116.1,16.2,114.7z" fill="#FFFFFF"/></g></g></g></g><g><g><g><g><g><path d="M44.7,101.9l0,8.1c-2.6,8.9-15.2,8.9-17.8,0v-8.1" fill="#FFF4EA"/></g></g></g></g></g><g><g><g><g><g><path d="M35.8,118.2L35.8,118.2c-4.9,0-9-3.1-10.3-7.8c0-0.1-0.1-0.3-0.1-0.4v-8.1c0-0.8,0.7-1.5,1.5-1.5         s1.5,0.7,1.5,1.5v7.9c1.2,4,4.8,5.4,7.4,5.4s6.2-1.4,7.4-5.4v-7.9c0-0.8,0.7-1.5,1.5-1.5s1.5,0.7,1.5,1.5v8.1         c0,0.1,0,0.3-0.1,0.4C44.8,115.2,40.8,118.2,35.8,118.2z" fill="#AF9BAC"/></g></g></g></g></g><g><g><g><g><path d="M4,123.5c-0.2,0-0.4,0-0.5-0.1c-0.8-0.3-1.2-1.2-0.9-1.9l0.6-1.6c1.4-3.5,4.1-6.3,7.6-7.7l15.5-6.1        c0.8-0.3,1.6,0.1,1.9,0.8c0.3,0.8-0.1,1.6-0.8,1.9L12,114.9c-2.7,1.1-4.9,3.3-6,6l-0.6,1.6C5.2,123.1,4.6,123.5,4,123.5z" fill="#AF9BAC"/></g></g></g></g><g><g><g><g><path d="M67.7,123.5c-0.6,0-1.2-0.4-1.4-1c-1.4-3.7-4.4-6.7-8.1-8.2l-13.9-5.5c-0.8-0.3-1.1-1.2-0.8-1.9        c0.3-0.8,1.2-1.1,1.9-0.8l13.9,5.5c4.5,1.8,8.1,5.4,9.8,9.9c0.3,0.8-0.1,1.6-0.9,1.9C68,123.5,67.9,123.5,67.7,123.5z" fill="#AF9BAC"/></g></g></g></g><g><g><g><g><g><g><path d="M59.9,72.6C59.9,53,50.1,43,35.8,43S11.8,53,11.8,72.6c-4.6,0.3-3.6,10.8,1.7,10.2          c6.7,18.7,16,23.6,22.4,23.6s15.7-4.9,22.4-23.6C63.5,83.4,64.5,72.9,59.9,72.6z" fill="#FFF4EA"/></g></g></g></g><g><g><g><g><path d="M60.2,71.5c-0.3-18.9-10-28.6-24-28.6c0,0-0.1,0-0.1,0c0,0-0.1,0-0.1,0c-14,0-23.7,9.7-24,28.6          l1.4,6.3c0.2,0.8,0.8,1.3,1.6,1.3h0c2.5-2.3,0-12.6,3.4-15.8c1.9-1.8,33.7-1.8,35.6,0c3.4,3.2,0.9,13.6,3.4,15.8h0          c0.8,0,1.4-0.5,1.6-1.3L60.2,71.5z" fill="#F6E6B9"/></g></g></g></g><g><g><g><g><path d="M35.8,107.9c-4.4,0-15.5-2.3-23.4-23.6c-3.2-0.4-4.9-3.7-5.1-7c-0.1-2.9,1-5.1,3-5.9          c0.4-18.8,9.9-29.9,25.5-29.9S61,52.7,61.4,71.4c1.9,0.8,3.1,3,3,5.9c-0.1,3.3-1.9,6.6-5.1,7          C51.3,105.6,40.3,107.9,35.8,107.9z M13.5,81.3c0.6,0,1.2,0.4,1.4,1c7.3,20.4,17.1,22.6,21,22.6s13.6-2.2,21-22.6          c0.2-0.7,0.9-1.1,1.6-1c1.9,0.2,2.9-2.3,2.9-4.1c0-1-0.2-3-1.5-3.1c-0.8-0.1-1.4-0.7-1.4-1.5c0-17.9-8.2-28.1-22.6-28.1          S13.3,54.7,13.3,72.6c0,0.8-0.6,1.4-1.4,1.5c-1.3,0.1-1.6,2.1-1.5,3.1c0.1,1.8,1,4.3,2.9,4.1C13.3,81.3,13.4,81.3,13.5,81.3          z" fill="#AF9BAC"/></g></g></g></g></g><g><g><g><g><path d="M14.8,80.7c-0.4,0-0.8-0.2-1.1-0.5c-0.6-0.6-0.5-1.6,0.1-2.1c0.7-0.6,0.8-3.6,0.8-5.7         c0.1-3.9,0.2-7.9,2.5-10.1c1.2-1.1,7.6-1.7,18.8-1.7c0,0,0,0,0,0c11.2,0,17.6,0.6,18.8,1.7c2.3,2.2,2.4,6.2,2.5,10.1         c0.1,2.1,0.2,5.1,0.8,5.7c0.6,0.6,0.7,1.5,0.1,2.1c-0.6,0.6-1.5,0.7-2.1,0.1c-1.6-1.5-1.7-4.4-1.8-7.8         c-0.1-2.9-0.2-6.5-1.5-7.9c-3.2-1.4-30.5-1.4-33.7,0c-1.3,1.4-1.4,5-1.5,7.9c-0.1,3.4-0.2,6.4-1.8,7.8         C15.5,80.5,15.2,80.7,14.8,80.7z" fill="#AF9BAC"/></g></g></g></g></g></g><g><g><g><g><g><g><g><g><path d="M92.5,112.3l-17.4-6.9H52.8l-19.3,7.7c-3.9,1.5-7,4.7-8.5,8.6l-0.8,2h54.2l3.8-3l4.2,3h17.4l0,0           C101.8,118.5,97.7,114.4,92.5,112.3z" fill="#65C5B4"/></g></g></g></g><g><g><g><g><path d="M78.4,123.6c0-2.2,1.8-4,4-4s4,1.8,4,4H78.4z" fill="#FFFFFF"/></g></g></g></g></g><g><g><g><g><path d="M39.5,114.5l20.2-9.1h-6.9l-19.3,7.7c-3.9,1.5-7,4.7-8.5,8.6l-0.8,2h7.1l0,0          C32.6,119.6,35.6,116.3,39.5,114.5z" fill="#FFFFFF"/></g></g></g></g><g><g><g><g><g><g><path d="M75.1,98.6l0,10.1c-3.2,11.2-19,11.2-22.3,0l0-10.1" fill="#D79381"/></g></g></g></g><g><g><g><g><path d="M52.8,106.9C52.8,106.9,52.8,106.9,52.8,106.9c-0.8,0-1.5-0.7-1.5-1.5l0.1-6.9            c0-0.8,0.7-1.5,1.5-1.5c0,0,0,0,0,0c0.8,0,1.5,0.7,1.5,1.5l-0.1,6.9C54.3,106.3,53.6,106.9,52.8,106.9z" fill="#62355C"/></g></g></g><g><g><g><path d="M75.2,106.9c-0.8,0-1.5-0.7-1.5-1.5l-0.1-6.9c0-0.8,0.7-1.5,1.5-1.5c0,0,0,0,0,0            c0.8,0,1.5,0.7,1.5,1.5l0.1,6.9C76.7,106.2,76,106.9,75.2,106.9C75.2,106.9,75.2,106.9,75.2,106.9z" fill="#62355C"/></g></g></g></g></g><g><g><g><path d="M24.2,125.2c-0.2,0-0.4,0-0.5-0.1c-0.8-0.3-1.2-1.2-0.9-1.9l0.8-2c1.7-4.3,5.1-7.7,9.3-9.4l19.3-7.7          c0.8-0.3,1.6,0.1,1.9,0.8c0.3,0.8-0.1,1.6-0.8,1.9L34,114.5c-3.5,1.4-6.3,4.2-7.7,7.7l-0.8,2          C25.4,124.8,24.8,125.2,24.2,125.2z" fill="#62355C"/></g></g></g><g><g><g><path d="M103.8,125.2c-0.6,0-1.2-0.4-1.4-1c-1.8-4.8-5.6-8.6-10.4-10.5l-17.4-6.9c-0.8-0.3-1.1-1.2-0.8-1.9          c0.3-0.8,1.2-1.1,1.9-0.8l17.4,6.9c5.5,2.2,9.9,6.6,12.1,12.2c0.3,0.8-0.1,1.6-0.9,1.9C104.2,125.1,104,125.2,103.8,125.2z" fill="#62355C"/></g></g></g><g><g><g><path d="M64,118.6c-6,0-10.9-3.7-12.6-9.5c0-0.1-0.1-0.3-0.1-0.4l-0.1-3.2c0-0.8,0.6-1.5,1.5-1.5          c0.8-0.1,1.5,0.6,1.5,1.5l0.1,3c1.6,5.2,6.2,7.1,9.6,7.1s8-1.9,9.6-7.1l0.1-3c0-0.8,0.7-1.5,1.5-1.5c0.8,0,1.5,0.7,1.5,1.5          l-0.1,3.2c0,0.1,0,0.3-0.1,0.4C74.9,114.8,70,118.6,64,118.6z" fill="#62355C"/></g></g></g><g><g><g><g><g><g><g><path d="M94.1,61.9c0-24.4-12.2-37-30.1-37s-30.1,12.6-30.1,37c-5.8,0.4-4.5,13.5,2.1,12.8              c8.4,23.3,20,29.5,28,29.5S83.6,98,92,74.7C98.6,75.4,99.9,62.3,94.1,61.9z" fill="#D79381"/></g></g></g><g><g><g><path d="M94.4,60.6C94,37,81.9,24.9,64.4,24.9c-0.1,0-0.1,0-0.2,0c-0.1,0-0.1,0-0.2,0              c-17.5,0-29.6,12.1-30,35.7l1.8,7.9c0.2,0.9,1,1.6,2,1.6l0,0c3.1-2.8-1.5-14.8,4.2-19.8c14.1-12,23.7,11.5,44.5,5.8              c5.7-1.6,1.1,11.2,4.2,14l0,0c1,0,1.8-0.7,2-1.6L94.4,60.6z" fill="#826D6F"/></g></g></g><g><g><g><path d="M64,105.7c-5.5,0-19.2-2.9-29-29.5c-3.9-0.3-6.1-4.4-6.2-8.4c-0.1-3.6,1.3-6.2,3.7-7.1              C32.8,37.3,44.6,23.4,64,23.4s31.2,13.9,31.6,37.3c2.4,0.9,3.8,3.6,3.7,7.1c-0.1,4-2.3,8-6.2,8.4              C83.2,102.8,69.5,105.7,64,105.7z M36,73.2c0.6,0,1.2,0.4,1.4,1c9.2,25.7,21.6,28.5,26.6,28.5s17.3-2.8,26.6-28.5              c0.2-0.7,0.9-1.1,1.6-1c2.5,0.3,4-2.7,4.1-5.5c0.1-1.5-0.4-4.2-2.3-4.3c-0.8-0.1-1.4-0.7-1.4-1.5              c0-22.2-10.7-35.5-28.6-35.5S35.4,39.7,35.4,61.9c0,0.8-0.6,1.4-1.4,1.5c-1.9,0.1-2.3,2.8-2.3,4.3              c0.1,2.8,1.6,5.8,4.1,5.5C35.9,73.2,36,73.2,36,73.2z" fill="#62355C"/></g></g></g><g><g><g><path d="M90.7,71.6c-0.4,0-0.7-0.1-1-0.4c-1.8-1.7-1.8-5.1-1.7-8.3c0-1.8,0.1-4.9-0.5-5.4              c0,0-0.3-0.1-0.6,0c-10.6,2.9-18.3-1.3-25.1-5c-7.1-3.9-12.3-6.7-18.8-1.1c-2.8,2.4-2.7,7.1-2.6,11.3              c0.1,3.6,0.2,6.8-1.7,8.5c-0.6,0.6-1.6,0.5-2.1-0.1c-0.6-0.6-0.5-1.6,0.1-2.1c0.8-0.7,0.7-3.6,0.7-6.2              c-0.1-4.6-0.3-10.3,3.6-13.6c8.1-6.9,14.9-3.2,22.2,0.7c6.6,3.6,13.4,7.3,22.9,4.7c1.6-0.4,2.7,0,3.3,0.5              c1.8,1.4,1.7,4.5,1.7,7.8c-0.1,2.2-0.1,5.3,0.7,6.1c0.6,0.6,0.7,1.5,0.1,2.1C91.5,71.5,91.1,71.6,90.7,71.6z" fill="#62355C"/></g></g></g></g><g opacity="0.2"><g><g><g><path d="M94.1,61.9c0-24.4-12.2-37-30.1-37c-0.4,0-0.8,0-1.3,0c-0.3,0-0.7,0-1,0.1              c16.6,1,27.8,13.5,27.8,36.9c-0.3,5.2-0.7,8.3-2.1,12.8c-8,22.3-16.9,28.9-24.6,29.5c0,0,0,0,0,0c0.4,0,0.8,0,1.1,0              c7.9,0,19.6-6.2,28-29.5C98.6,75.4,99.9,62.3,94.1,61.9z" fill="#62345B"/></g></g></g></g></g></g></g></g><g><g><g><g><g><path d="           M52.7,104.6" fill="none" stroke="#F7BD35" stroke-linecap="round" stroke-linejoin="round" stroke-miterlimit="10" stroke-width="3"/></g></g></g><g><g><g><path d="           M75.3,104.6" fill="none" stroke="#F7BD35" stroke-linecap="round" stroke-linejoin="round" stroke-miterlimit="10" stroke-width="3"/></g></g></g></g></g></g></g></g></g></svg>